<svg width="150" height="150" viewBox="0 0 150 150" fill="none" xmlns="http://www.w3.org/2000/svg">
<path d="M63.2941 104.928C60.6088 104.928 58.3109 103.963 56.4002 102.033C54.4896 100.102 53.5327 97.7787 53.5294 95.0623V35.866C53.5294 33.1529 54.4863 30.8311 56.4002 28.9006C58.3141 26.9702 60.6121 26.0033 63.2941 26H107.235C109.921 26 112.22 26.9669 114.134 28.9006C116.048 30.8344 117.003 33.1562 117 35.866V95.0623C117 97.7754 116.045 100.099 114.134 102.033C112.223 103.966 109.924 104.932 107.235 104.928H63.2941ZM43.7647 124.66C41.0794 124.66 38.7815 123.695 36.8708 121.765C34.9602 119.834 34.0033 117.511 34 114.794V45.7321H43.7647V114.794H97.4706V124.66H43.7647Z" fill="#35B9B6"/>
<path d="M84.8963 41.7909C71.5693 41.7909 60.7532 52.607 60.7532 65.934C60.7532 79.261 71.5693 90.0771 84.8963 90.0771C98.2232 90.0771 109.039 79.261 109.039 65.934C109.039 52.607 98.2232 41.7909 84.8963 41.7909ZM96.0986 58.2082C95.7365 62.0228 94.1672 71.2937 93.3705 75.5671C93.0325 77.3778 92.3565 77.9814 91.7287 78.0538C90.3284 78.1745 89.2662 77.1364 87.9141 76.2431C85.7895 74.8428 84.5824 73.9736 82.5302 72.6216C80.1401 71.0523 81.6852 70.1832 83.0614 68.7829C83.4235 68.4207 89.6042 62.7954 89.7249 62.2884C89.7416 62.2116 89.7394 62.1319 89.7184 62.0561C89.6973 61.9804 89.6581 61.9109 89.6042 61.8538C89.4593 61.7331 89.2662 61.7814 89.0972 61.8055C88.8799 61.8538 85.4998 64.0991 78.9088 68.5414C77.943 69.1933 77.0739 69.5313 76.3013 69.5071C75.4322 69.483 73.7904 69.0243 72.5591 68.6139C71.0381 68.131 69.8551 67.8654 69.9517 67.0204C70 66.5858 70.6036 66.1513 71.7383 65.6925C78.7881 62.6264 83.4718 60.5984 85.8137 59.6326C92.5255 56.832 93.9016 56.3492 94.8191 56.3492C95.0122 56.3492 95.4709 56.3975 95.7606 56.6389C96.0021 56.832 96.0745 57.0976 96.0986 57.2908C96.0745 57.4356 96.1228 57.8702 96.0986 58.2082Z" fill="white"/>
</svg>
