<svg width="150" height="150" viewBox="0 0 150 150" fill="none" xmlns="http://www.w3.org/2000/svg">
<g clip-path="url(#clip0_47_325)">
<rect width="150" height="150" rx="39" fill="#0D9488"/>
<path d="M61.4781 109.332C58.3933 109.332 55.7534 108.223 53.5585 106.006C51.3636 103.788 50.2643 101.119 50.2605 97.9982V29.9944C50.2605 26.8775 51.3599 24.2103 53.5585 21.9926C55.7572 19.7749 58.397 18.6642 61.4781 18.6604H111.957C115.042 18.6604 117.684 19.7711 119.882 21.9926C122.081 24.214 123.178 26.8813 123.175 29.9944V97.9982C123.175 101.115 122.077 103.784 119.882 106.006C117.687 108.227 115.046 109.336 111.957 109.332H61.4781ZM39.043 132C35.9582 132 33.3183 130.891 31.1234 128.674C28.9285 126.456 27.8292 123.787 27.8254 120.666V41.3283H39.043V120.666H100.74V132H39.043Z" fill="white"/>
<path d="M86.2943 36.8007C70.9845 36.8007 58.5591 49.226 58.5591 64.5359C58.5591 79.8457 70.9845 92.2711 86.2943 92.2711C101.604 92.2711 114.03 79.8457 114.03 64.5359C114.03 49.226 101.604 36.8007 86.2943 36.8007ZM99.1635 55.6606C98.7474 60.0428 96.9446 70.6931 96.0294 75.6022C95.6411 77.6824 94.8645 78.3758 94.1434 78.459C92.5347 78.5977 91.3144 77.405 89.7612 76.3788C87.3205 74.7702 85.9338 73.7717 83.5763 72.2186C80.8305 70.4158 82.6055 69.4173 84.1864 67.8086C84.6025 67.3926 91.7027 60.9303 91.8414 60.3479C91.8606 60.2597 91.8581 60.1681 91.8339 60.0811C91.8097 59.9941 91.7647 59.9143 91.7027 59.8486C91.5363 59.71 91.3144 59.7654 91.1202 59.7932C90.8706 59.8486 86.9877 62.428 79.416 67.5313C78.3066 68.2801 77.3081 68.6684 76.4206 68.6407C75.4221 68.613 73.5361 68.086 72.1216 67.6145C70.3743 67.0598 69.0153 66.7547 69.1262 65.784C69.1817 65.2847 69.8751 64.7855 71.1786 64.2585C79.2773 60.7362 84.6579 58.4064 87.3483 57.297C95.0586 54.0797 96.6396 53.525 97.6935 53.525C97.9154 53.525 98.4423 53.5805 98.7752 53.8578C99.0525 54.0797 99.1357 54.3848 99.1635 54.6067C99.1357 54.7731 99.1912 55.2723 99.1635 55.6606Z" fill="#0D9488"/>
</g>
<defs>
<clipPath id="clip0_47_325">
<rect width="150" height="150" fill="white"/>
</clipPath>
</defs>
</svg>
