<svg xmlns="http://www.w3.org/2000/svg" aria-hidden="true">
  <symbol id="gb" viewBox="0 0 3 2">
    <rect width="3" height="2" fill="#012169"/>
    <path fill="#fff" d="M0 0h3v.22H0zm0 .78h3v.22H0zm0 .78h3v.22H0zM0 0v2h.22V0zm.78 0v2h.22V0zm.78 0v2h.22V0z"/>
    <path fill="#C8102E" d="M0 0l3 2M3 0L0 2M1.5 0v2M0 1h3"/>
  </symbol>
  <symbol id="us" viewBox="0 0 3 2">
    <rect width="3" height="2" fill="#fff"/>
    <path fill="#B22234" d="M0 0h3v.154H0zm0 .308h3v.154H0zm0 .308h3v.154H0zm0 .308h3v.154H0zm0 .308h3v.154H0zm0 .308h3v.154H0zm0 .308h3v.154H0z"/>
    <rect width="1.2" height="1.077" fill="#3C3B6E"/>
  </symbol>
  <symbol id="es" viewBox="0 0 3 2">
    <rect width="3" height="2" fill="#AA151B"/>
    <rect y=".5" width="3" height="1" fill="#F1BF00"/>
  </symbol>
  <symbol id="fr" viewBox="0 0 3 2">
    <rect width="1" height="2" fill="#002395"/>
    <rect x="1" width="1" height="2" fill="#fff"/>
    <rect x="2" width="1" height="2" fill="#ED2939"/>
  </symbol>
  <symbol id="pl" viewBox="0 0 3 2">
    <rect width="3" height="1" fill="#fff"/>
    <rect y="1" width="3" height="1" fill="#DC143C"/>
  </symbol>
  <symbol id="ru" viewBox="0 0 3 2">
    <rect width="3" height=".67" fill="#fff"/>
    <rect y=".67" width="3" height=".66" fill="#0039A6"/>
    <rect y="1.33" width="3" height=".67" fill="#D52B1E"/>
  </symbol>
  <symbol id="se" viewBox="0 0 3 2">
    <rect width="3" height="2" fill="#006AA7"/>
    <rect x="0.8" width="0.35" height="2" fill="#FECC00"/>
    <rect y="0.75" width="3" height="0.35" fill="#FECC00"/>
  </symbol>
  <symbol id="nl" viewBox="0 0 3 2">
    <rect width="3" height=".67" fill="#AE1C28"/>
    <rect y=".67" width="3" height=".66" fill="#fff"/>
    <rect y="1.33" width="3" height=".67" fill="#21468B"/>
  </symbol>
  <symbol id="jp" viewBox="0 0 3 2">
    <rect width="3" height="2" fill="#fff"/>
    <circle cx="1.5" cy="1" r=".55" fill="#BC002D"/>
  </symbol>
</svg>
